<svg xmlns="http://www.w3.org/2000/svg" xmlns:xlink="http://www.w3.org/1999/xlink" width="500" zoomAndPan="magnify" viewBox="0 0 375 374.999991" height="500" preserveAspectRatio="xMidYMid meet" version="1.0"><defs><clipPath id="adc672b713"><path d="M 84.546875 84.546875 L 290.796875 84.546875 L 290.796875 290.796875 L 84.546875 290.796875 Z M 84.546875 84.546875 " clip-rule="nonzero"/></clipPath></defs><path fill="#f19820" d="M 28.90625 128.292969 C 28.90625 128.292969 -8.558594 202.519531 13.65625 239.761719 C 35.871094 277.003906 59.003906 346.625 120.128906 358.074219 C 181.25 369.523438 284.171875 336.753906 316.246094 304.378906 C 348.316406 272.003906 383.414062 175.277344 315.324219 95.65625 C 247.234375 16.039062 151.410156 5.773438 28.90625 128.292969 Z M 28.90625 128.292969 " fill-opacity="1" fill-rule="nonzero"/><g clip-path="url(#adc672b713)"><path fill="#4285f4" d="M 290.875 187.730469 C 290.875 189.417969 290.835938 191.105469 290.753906 192.792969 C 290.667969 194.476562 290.546875 196.160156 290.378906 197.839844 C 290.214844 199.519531 290.007812 201.195312 289.761719 202.867188 C 289.511719 204.535156 289.222656 206.199219 288.894531 207.855469 C 288.566406 209.507812 288.195312 211.15625 287.785156 212.792969 C 287.375 214.429688 286.925781 216.058594 286.433594 217.671875 C 285.945312 219.289062 285.414062 220.890625 284.847656 222.480469 C 284.277344 224.070312 283.671875 225.644531 283.023438 227.203125 C 282.378906 228.761719 281.695312 230.304688 280.972656 231.832031 C 280.25 233.355469 279.492188 234.863281 278.695312 236.351562 C 277.902344 237.84375 277.070312 239.308594 276.203125 240.757812 C 275.335938 242.207031 274.429688 243.632812 273.492188 245.035156 C 272.554688 246.4375 271.582031 247.820312 270.578125 249.175781 C 269.574219 250.53125 268.535156 251.859375 267.464844 253.164062 C 266.394531 254.46875 265.289062 255.75 264.15625 257 C 263.023438 258.25 261.859375 259.472656 260.664062 260.664062 C 259.472656 261.859375 258.25 263.023438 257 264.15625 C 255.75 265.289062 254.46875 266.394531 253.164062 267.464844 C 251.859375 268.535156 250.53125 269.574219 249.175781 270.578125 C 247.820312 271.582031 246.4375 272.554688 245.035156 273.492188 C 243.632812 274.429688 242.207031 275.332031 240.757812 276.203125 C 239.308594 277.070312 237.84375 277.902344 236.351562 278.695312 C 234.863281 279.492188 233.355469 280.25 231.832031 280.972656 C 230.304688 281.695312 228.761719 282.378906 227.203125 283.023438 C 225.644531 283.671875 224.070312 284.277344 222.480469 284.847656 C 220.890625 285.414062 219.289062 285.945312 217.671875 286.433594 C 216.058594 286.925781 214.429688 287.375 212.792969 287.785156 C 211.15625 288.195312 209.507812 288.566406 207.855469 288.894531 C 206.199219 289.222656 204.535156 289.511719 202.867188 289.761719 C 201.195312 290.007812 199.519531 290.214844 197.839844 290.378906 C 196.160156 290.546875 194.476562 290.667969 192.792969 290.753906 C 191.105469 290.835938 189.417969 290.875 187.730469 290.875 C 186.042969 290.875 184.355469 290.835938 182.667969 290.753906 C 180.984375 290.667969 179.300781 290.546875 177.621094 290.378906 C 175.941406 290.214844 174.265625 290.007812 172.597656 289.761719 C 170.925781 289.511719 169.265625 289.222656 167.609375 288.894531 C 165.953125 288.566406 164.304688 288.195312 162.667969 287.785156 C 161.03125 287.375 159.40625 286.925781 157.789062 286.433594 C 156.175781 285.945312 154.570312 285.414062 152.980469 284.847656 C 151.394531 284.277344 149.816406 283.671875 148.257812 283.023438 C 146.699219 282.378906 145.15625 281.695312 143.628906 280.972656 C 142.105469 280.25 140.597656 279.492188 139.109375 278.695312 C 137.621094 277.902344 136.152344 277.070312 134.703125 276.203125 C 133.253906 275.332031 131.828125 274.429688 130.425781 273.492188 C 129.023438 272.554688 127.644531 271.582031 126.285156 270.578125 C 124.929688 269.574219 123.601562 268.535156 122.296875 267.464844 C 120.992188 266.394531 119.714844 265.289062 118.460938 264.15625 C 117.210938 263.023438 115.988281 261.859375 114.796875 260.664062 C 113.601562 259.472656 112.4375 258.25 111.304688 257 C 110.171875 255.75 109.070312 254.46875 108 253.164062 C 106.925781 251.859375 105.890625 250.53125 104.882812 249.175781 C 103.878906 247.820312 102.90625 246.4375 101.96875 245.035156 C 101.03125 243.632812 100.128906 242.207031 99.261719 240.757812 C 98.390625 239.308594 97.558594 237.84375 96.765625 236.351562 C 95.96875 234.863281 95.210938 233.355469 94.488281 231.832031 C 93.765625 230.304688 93.082031 228.761719 92.4375 227.203125 C 91.789062 225.644531 91.183594 224.070312 90.613281 222.480469 C 90.046875 220.890625 89.515625 219.289062 89.027344 217.671875 C 88.535156 216.058594 88.085938 214.429688 87.675781 212.792969 C 87.265625 211.15625 86.894531 209.507812 86.566406 207.855469 C 86.238281 206.199219 85.949219 204.535156 85.703125 202.867188 C 85.453125 201.195312 85.246094 199.519531 85.082031 197.839844 C 84.917969 196.160156 84.792969 194.476562 84.710938 192.792969 C 84.625 191.105469 84.585938 189.417969 84.585938 187.730469 C 84.585938 186.042969 84.625 184.355469 84.710938 182.667969 C 84.792969 180.984375 84.917969 179.300781 85.082031 177.621094 C 85.246094 175.941406 85.453125 174.265625 85.703125 172.597656 C 85.949219 170.925781 86.238281 169.265625 86.566406 167.609375 C 86.894531 165.953125 87.265625 164.304688 87.675781 162.667969 C 88.085938 161.03125 88.535156 159.40625 89.027344 157.789062 C 89.515625 156.171875 90.046875 154.570312 90.613281 152.980469 C 91.183594 151.394531 91.789062 149.816406 92.4375 148.257812 C 93.082031 146.699219 93.765625 145.15625 94.488281 143.628906 C 95.210938 142.105469 95.96875 140.597656 96.765625 139.109375 C 97.558594 137.621094 98.390625 136.152344 99.261719 134.703125 C 100.128906 133.253906 101.03125 131.828125 101.96875 130.425781 C 102.90625 129.023438 103.878906 127.644531 104.882812 126.285156 C 105.890625 124.929688 106.925781 123.601562 108 122.296875 C 109.070312 120.992188 110.171875 119.714844 111.304688 118.460938 C 112.4375 117.210938 113.601562 115.988281 114.796875 114.796875 C 115.988281 113.601562 117.210938 112.4375 118.460938 111.304688 C 119.714844 110.171875 120.992188 109.070312 122.296875 108 C 123.601562 106.925781 124.929688 105.890625 126.285156 104.882812 C 127.644531 103.878906 129.023438 102.90625 130.425781 101.96875 C 131.828125 101.03125 133.253906 100.128906 134.703125 99.261719 C 136.152344 98.390625 137.621094 97.558594 139.109375 96.765625 C 140.597656 95.96875 142.105469 95.210938 143.628906 94.488281 C 145.15625 93.765625 146.699219 93.082031 148.257812 92.4375 C 149.816406 91.789062 151.394531 91.183594 152.980469 90.613281 C 154.570312 90.046875 156.175781 89.515625 157.789062 89.027344 C 159.40625 88.535156 161.03125 88.085938 162.667969 87.675781 C 164.304688 87.265625 165.953125 86.894531 167.609375 86.566406 C 169.265625 86.238281 170.925781 85.949219 172.597656 85.703125 C 174.265625 85.453125 175.941406 85.246094 177.621094 85.082031 C 179.300781 84.917969 180.984375 84.792969 182.667969 84.710938 C 184.355469 84.625 186.042969 84.585938 187.730469 84.585938 C 189.417969 84.585938 191.105469 84.625 192.792969 84.710938 C 194.476562 84.792969 196.160156 84.917969 197.839844 85.082031 C 199.519531 85.246094 201.195312 85.453125 202.867188 85.703125 C 204.535156 85.949219 206.199219 86.238281 207.855469 86.566406 C 209.507812 86.894531 211.15625 87.265625 212.792969 87.675781 C 214.429688 88.085938 216.058594 88.535156 217.671875 89.027344 C 219.289062 89.515625 220.890625 90.046875 222.480469 90.613281 C 224.070312 91.183594 225.644531 91.789062 227.203125 92.4375 C 228.761719 93.082031 230.304688 93.765625 231.832031 94.488281 C 233.355469 95.210938 234.863281 95.96875 236.351562 96.765625 C 237.84375 97.558594 239.308594 98.390625 240.757812 99.261719 C 242.207031 100.128906 243.632812 101.03125 245.035156 101.96875 C 246.4375 102.90625 247.820312 103.878906 249.175781 104.882812 C 250.53125 105.890625 251.859375 106.925781 253.164062 108 C 254.46875 109.070312 255.75 110.171875 257 111.304688 C 258.25 112.4375 259.472656 113.601562 260.664062 114.796875 C 261.859375 115.988281 263.023438 117.210938 264.15625 118.460938 C 265.289062 119.714844 266.394531 120.992188 267.464844 122.296875 C 268.535156 123.601562 269.574219 124.929688 270.578125 126.285156 C 271.582031 127.644531 272.554688 129.023438 273.492188 130.425781 C 274.429688 131.828125 275.335938 133.253906 276.203125 134.703125 C 277.070312 136.152344 277.902344 137.621094 278.695312 139.109375 C 279.492188 140.597656 280.25 142.105469 280.972656 143.628906 C 281.695312 145.15625 282.378906 146.699219 283.023438 148.257812 C 283.671875 149.816406 284.277344 151.394531 284.847656 152.980469 C 285.414062 154.570312 285.945312 156.171875 286.433594 157.789062 C 286.925781 159.40625 287.375 161.03125 287.785156 162.667969 C 288.195312 164.304688 288.566406 165.953125 288.894531 167.609375 C 289.222656 169.265625 289.511719 170.925781 289.761719 172.597656 C 290.007812 174.265625 290.214844 175.941406 290.378906 177.621094 C 290.546875 179.300781 290.667969 180.984375 290.753906 182.667969 C 290.835938 184.355469 290.875 186.042969 290.875 187.730469 Z M 290.875 187.730469 " fill-opacity="1" fill-rule="nonzero"/></g><path fill="#000000" d="M 142.015625 245.546875 C 141.210938 245.546875 140.558594 244.894531 140.558594 244.09375 L 140.5625 129.875 C 140.5625 125.050781 144.484375 121.128906 149.304688 121.128906 L 226.15625 121.128906 C 230.976562 121.128906 234.898438 125.050781 234.898438 129.875 L 234.902344 235.308594 C 234.902344 236.109375 234.25 236.761719 233.445312 236.761719 C 232.644531 236.761719 231.992188 236.109375 231.992188 235.308594 L 231.992188 129.875 C 231.992188 126.65625 229.371094 124.035156 226.15625 124.035156 L 149.308594 124.035156 C 146.085938 124.035156 143.46875 126.65625 143.46875 129.875 L 143.46875 244.09375 C 143.46875 244.894531 142.816406 245.546875 142.015625 245.546875 Z M 142.015625 245.546875 " fill-opacity="1" fill-rule="evenodd"/><path fill="#000000" d="M 158.378906 236.761719 C 157.574219 236.761719 156.921875 236.109375 156.921875 235.308594 L 156.921875 122.582031 C 156.921875 121.777344 157.574219 121.128906 158.375 121.128906 C 159.179688 121.128906 159.832031 121.78125 159.832031 122.582031 L 159.832031 235.308594 C 159.832031 236.109375 159.179688 236.761719 158.378906 236.761719 Z M 158.378906 236.761719 " fill-opacity="1" fill-rule="evenodd"/><path fill="#000000" d="M 221.613281 160.410156 C 221.246094 160.410156 220.886719 160.273438 220.609375 160.011719 L 212.363281 152.152344 L 204.113281 160.011719 C 203.691406 160.410156 203.070312 160.523438 202.539062 160.296875 C 202 160.066406 201.65625 159.539062 201.65625 158.957031 L 201.65625 122.582031 C 201.65625 121.777344 202.308594 121.128906 203.109375 121.128906 C 203.914062 121.128906 204.5625 121.78125 204.5625 122.582031 L 204.566406 155.5625 L 211.359375 149.09375 C 211.921875 148.554688 212.804688 148.554688 213.363281 149.09375 L 220.160156 155.5625 L 220.160156 122.582031 C 220.160156 121.777344 220.8125 121.128906 221.613281 121.128906 C 222.417969 121.128906 223.066406 121.78125 223.066406 122.582031 L 223.066406 158.957031 C 223.066406 159.539062 222.722656 160.066406 222.1875 160.296875 C 222.003906 160.375 221.808594 160.410156 221.613281 160.410156 Z M 221.613281 160.410156 " fill-opacity="1" fill-rule="evenodd"/><path fill="#000000" d="M 150.800781 236.761719 C 146.757812 236.761719 143.46875 240.050781 143.46875 244.09375 C 143.46875 248.136719 146.757812 251.425781 150.800781 251.425781 L 226.574219 251.425781 C 229.5625 251.425781 231.992188 248.996094 231.992188 246.011719 L 231.992188 236.761719 Z M 226.574219 254.332031 L 150.800781 254.332031 C 145.152344 254.332031 140.558594 249.738281 140.558594 244.09375 C 140.5625 238.445312 145.152344 233.855469 150.800781 233.855469 L 233.445312 233.851562 C 234.25 233.851562 234.898438 234.503906 234.898438 235.308594 L 234.902344 246.011719 C 234.902344 250.601562 231.164062 254.332031 226.574219 254.332031 Z M 226.574219 254.332031 " fill-opacity="1" fill-rule="evenodd"/><path fill="#000000" d="M 233.445312 245.546875 L 148.8125 245.546875 C 148.011719 245.546875 147.359375 244.894531 147.359375 244.09375 C 147.359375 243.289062 148.011719 242.640625 148.8125 242.640625 L 233.445312 242.640625 C 234.25 242.640625 234.902344 243.289062 234.902344 244.09375 C 234.902344 244.894531 234.25 245.546875 233.445312 245.546875 Z M 233.445312 245.546875 " fill-opacity="1" fill-rule="evenodd"/><path fill="#ffe082" d="M 204.5625 155.5625 L 211.359375 149.09375 C 211.917969 148.554688 212.804688 148.554688 213.363281 149.09375 L 220.160156 155.5625 L 220.160156 124.035156 L 204.5625 124.035156 Z M 204.5625 155.5625 " fill-opacity="1" fill-rule="evenodd"/><path fill="#82b6e0" d="M 156.921875 233.855469 L 156.921875 124.035156 L 149.308594 124.035156 C 146.085938 124.035156 143.46875 126.65625 143.46875 129.875 L 143.46875 236.953125 C 145.328125 235.042969 147.929688 233.855469 150.800781 233.855469 Z M 156.921875 233.855469 " fill-opacity="1" fill-rule="evenodd"/><path fill="#90caf9" d="M 159.832031 124.035156 L 159.832031 233.855469 L 231.992188 233.851562 L 231.992188 129.875 C 231.992188 126.65625 229.371094 124.035156 226.15625 124.035156 L 223.066406 124.035156 L 223.066406 158.957031 C 223.066406 159.539062 222.722656 160.066406 222.1875 160.296875 C 222 160.375 221.808594 160.410156 221.613281 160.410156 C 221.246094 160.410156 220.886719 160.273438 220.609375 160.011719 L 212.363281 152.152344 L 204.113281 160.011719 C 203.691406 160.410156 203.070312 160.523438 202.535156 160.296875 C 202 160.066406 201.65625 159.539062 201.65625 158.957031 L 201.65625 124.035156 Z M 159.832031 124.035156 " fill-opacity="1" fill-rule="evenodd"/><path fill="#eceff1" d="M 231.992188 245.546875 L 148.8125 245.546875 C 148.011719 245.546875 147.359375 244.894531 147.359375 244.09375 C 147.359375 243.289062 148.011719 242.640625 148.8125 242.640625 L 231.992188 242.640625 L 231.992188 236.761719 L 150.800781 236.761719 C 146.757812 236.761719 143.46875 240.050781 143.46875 244.09375 C 143.46875 248.136719 146.757812 251.425781 150.800781 251.425781 L 226.574219 251.425781 C 229.5625 251.425781 231.992188 249 231.992188 246.011719 Z M 231.992188 245.546875 " fill-opacity="1" fill-rule="evenodd"/></svg>